<svg width="546.6348388671875px" height="122px" xmlns="http://www.w3.org/2000/svg" viewBox="-23.317419433593727 14 546.6348388671875 122" style="background: rgba(0, 0, 0, 0);" preserveAspectRatio="xMidYMid"><defs><linearGradient id="editing-gradient-gradient" x1="0" x2="1" y1="0.5" y2="0.5" gradientUnits="objectBoundingBox"><stop offset="0" stop-color="#f0f"></stop><stop offset="1" stop-color="#0ff"></stop></linearGradient></defs><g><g transform="translate(56.61313307285309, 99.00000190734863)"><path d="M34.50-13.25L34.50-13.25L34.50-13.25Q36.16-12.03 36.16-9.44L36.16-9.44L36.16-9.44Q36.16-6.85 35.04-5.02L35.04-5.02L35.04-5.02Q33.92-3.20 31.74-1.79L31.74-1.79L31.74-1.79Q27.07 1.22 18.91 1.22L18.91 1.22L18.91 1.22Q10.75 1.22 6.30-3.04L6.30-3.04L6.30-3.04Q1.86-7.30 1.86-14.85L1.86-14.85L1.86-14.85Q1.86-25.54 7.42-33.66L7.42-33.66L7.42-33.66Q11.65-39.68 19.20-42.24L19.20-42.24L19.20-42.24Q23.10-43.52 26.94-43.52L26.94-43.52L26.94-43.52Q30.78-43.52 33.15-43.01L33.15-43.01L33.15-43.01Q35.52-42.50 37.31-41.47L37.31-41.47L37.31-41.47Q41.22-39.23 41.22-35.65L41.22-35.65L41.22-35.65Q41.22-32.38 38.14-29.95L38.14-29.95L38.14-29.95Q35.33-27.78 33.02-27.78L33.02-27.78L33.02-27.78Q30.72-27.78 29.76-28.10L29.76-28.10L29.76-28.10Q30.02-30.40 30.02-31.90L30.02-31.90L30.02-31.90Q30.02-33.41 29.95-34.50L29.95-34.50L29.95-34.50Q29.89-35.58 29.57-36.61L29.57-36.61L29.57-36.61Q28.93-38.98 26.98-38.98L26.98-38.98L26.98-38.98Q25.02-38.98 23.07-37.15L23.07-37.15L23.07-37.15Q21.12-35.33 19.46-32.26L19.46-32.26L19.46-32.26Q15.68-25.28 15.68-17.02L15.68-17.02L15.68-17.02Q15.68-13.06 17.92-10.78L17.92-10.78L17.92-10.78Q20.16-8.51 24.96-8.51L24.96-8.51L24.96-8.51Q28.54-8.51 31.94-10.88L31.94-10.88L31.94-10.88Q33.41-11.90 34.50-13.25ZM42.69-9.47L42.69-9.47L42.69-9.47Q42.69-11.97 43.33-15.17L43.33-15.17L48.51-42.24L62.66-42.24L57.54-14.98L57.54-14.98Q56.96-11.97 56.96-9.76L56.96-9.76L56.96-9.76Q56.96-7.55 57.89-6.40L57.89-6.40L57.89-6.40Q58.82-5.25 60.54-5.25L60.54-5.25L60.54-5.25Q62.27-5.25 63.36-5.70L63.36-5.70L63.36-5.70Q64.45-6.14 65.34-7.23L65.34-7.23L65.34-7.23Q67.07-9.41 68.16-14.98L68.16-14.98L73.34-42.24L83.01-42.24L77.89-15.04L77.89-15.04Q76.10-5.95 71.17-2.30L71.17-2.30L71.17-2.30Q66.37 1.28 56.90 1.28L56.90 1.28L56.90 1.28Q49.79 1.28 46.02-1.79L46.02-1.79L46.02-1.79Q42.69-4.48 42.69-9.47ZM85.50-9.47L85.50-9.47L85.50-9.47Q85.50-11.97 86.14-15.17L86.14-15.17L91.33-42.24L105.47-42.24L100.35-14.98L100.35-14.98Q99.78-11.97 99.78-9.76L99.78-9.76L99.78-9.76Q99.78-7.55 100.70-6.40L100.70-6.40L100.70-6.40Q101.63-5.25 103.36-5.25L103.36-5.25L103.36-5.25Q105.09-5.25 106.18-5.70L106.18-5.70L106.18-5.70Q107.26-6.14 108.16-7.23L108.16-7.23L108.16-7.23Q109.89-9.41 110.98-14.98L110.98-14.98L116.16-42.24L125.82-42.24L120.70-15.04L120.70-15.04Q118.91-5.95 113.98-2.30L113.98-2.30L113.98-2.30Q109.18 1.28 99.71 1.28L99.71 1.28L99.71 1.28Q92.61 1.28 88.83-1.79L88.83-1.79L88.83-1.79Q85.50-4.48 85.50-9.47ZM150.21-29.50L143.42-29.50L143.42-29.50Q145.79-37.70 145.92-46.34L145.92-46.34L147.78-46.59L147.78-46.59Q148.74-46.72 149.44-46.72L149.44-46.72L149.44-46.72Q152.26-46.72 153.79-45.34L153.79-45.34L153.79-45.34Q155.33-43.97 155.33-41.54L155.33-41.54L155.33-41.54Q155.33-38.98 154.18-36.16L154.18-36.16L154.18-36.16Q152.13-31.17 150.21-29.50L150.21-29.50ZM163.58-29.50L156.80-29.50L156.80-29.50Q159.17-37.70 159.30-46.34L159.30-46.34L161.15-46.59L161.15-46.59Q162.11-46.72 162.82-46.72L162.82-46.72L162.82-46.72Q165.63-46.72 167.17-45.34L167.17-45.34L167.17-45.34Q168.70-43.97 168.70-41.54L168.70-41.54L168.70-41.54Q168.70-38.98 167.55-36.16L167.55-36.16L167.55-36.16Q165.50-31.17 163.58-29.50L163.58-29.50ZM194.62 1.28L194.62 1.28L194.62 1.28Q186.43 1.28 185.66-10.37L185.66-10.37L174.66-10.37L174.66-10.37Q173.38-7.42 172.48-4.86L172.48-4.86L170.82 0L161.86 0L182.02-42.24L195.78-42.24L198.46-11.14L198.46-11.14Q199.10-4.42 201.66-2.43L201.66-2.43L201.66-2.43Q199.81 1.28 194.62 1.28ZM180.16-23.17L176.64-15.04L185.47-15.04L184.70-31.49L184.70-33.22L180.16-23.17ZM220.67-3.52L220.67-3.52L220.67-3.52Q218.69 1.28 212.35 1.28L212.35 1.28L212.35 1.28Q209.15 1.28 207.10-0.96L207.10-0.96L207.10-0.96Q205.44-2.82 205.44-4.93L205.44-4.93L205.44-4.93Q205.44-9.73 207.68-20.22L207.68-20.22L212.35-44.80L225.34-46.08L219.14-13.70L219.14-13.70Q218.05-8.96 218.05-7.30L218.05-7.30L218.05-7.30Q218.05-3.65 220.67-3.52ZM241.47-3.52L241.47-3.52L241.47-3.52Q239.49 1.28 233.15 1.28L233.15 1.28L233.15 1.28Q229.89 1.28 227.84-0.96L227.84-0.96L227.84-0.96Q226.11-2.94 226.11-4.93L226.11-4.93L226.11-4.93Q226.11-10.11 228.48-20.22L228.48-20.22L230.85-32.64L243.84-33.92L239.94-13.70L239.94-13.70Q238.85-8.96 238.85-7.30L238.85-7.30L238.85-7.30Q238.85-3.65 241.47-3.52ZM232-41.54L232-41.54L232-41.54Q232-44.03 234.08-45.38L234.08-45.38L234.08-45.38Q236.16-46.72 239.17-46.72L239.17-46.72L239.17-46.72Q242.18-46.72 244-45.38L244-45.38L244-45.38Q245.82-44.03 245.82-41.54L245.82-41.54L245.82-41.54Q245.82-39.04 243.81-37.76L243.81-37.76L243.81-37.76Q241.79-36.48 238.78-36.48L238.78-36.48L238.78-36.48Q235.78-36.48 233.89-37.76L233.89-37.76L233.89-37.76Q232-39.04 232-41.54ZM249.70-1.92L249.70-1.92L249.70-1.92Q248.19-3.58 247.52-6.21L247.52-6.21L247.52-6.21Q246.85-8.83 246.85-13.12L246.85-13.12L246.85-13.12Q246.85-17.41 248.32-21.31L248.32-21.31L248.32-21.31Q249.79-25.22 252.48-28.03L252.48-28.03L252.48-28.03Q257.98-33.92 267.07-33.92L267.07-33.92L267.07-33.92Q270.34-33.92 272.70-32.83L272.70-32.83L283.65-33.92L278.91-8.96L278.91-8.96Q278.72-8.19 278.72-6.78L278.72-6.78L278.72-6.78Q278.72-5.38 279.58-4.48L279.58-4.48L279.58-4.48Q280.45-3.58 281.73-3.46L281.73-3.46L281.73-3.46Q281.09-1.28 278.75 0L278.75 0L278.75 0Q276.42 1.28 273.79 1.28L273.79 1.28L273.79 1.28Q271.17 1.28 269.41 0.29L269.41 0.29L269.41 0.29Q267.65-0.70 267.14-2.37L267.14-2.37L267.14-2.37Q266.11-0.77 263.94 0.26L263.94 0.26L263.94 0.26Q261.76 1.28 258.85 1.28L258.85 1.28L258.85 1.28Q255.94 1.28 253.57 0.51L253.57 0.51L253.57 0.51Q251.20-0.26 249.70-1.92ZM263.20-27.90L263.20-27.90L263.20-27.90Q262.46-26.75 261.82-24.80L261.82-24.80L261.82-24.80Q261.18-22.85 260.13-17.63L260.13-17.63L260.13-17.63Q259.07-12.42 259.07-8.70L259.07-8.70L259.07-8.70Q259.07-4.99 259.65-3.90L259.65-3.90L259.65-3.90Q260.22-2.82 261.25-2.82L261.25-2.82L261.25-2.82Q263.30-2.82 264.80-4.77L264.80-4.77L264.80-4.77Q266.30-6.72 266.88-10.18L266.88-10.18L270.27-28.93L270.27-28.93Q268.93-30.08 267.36-30.08L267.36-30.08L267.36-30.08Q265.79-30.08 264.86-29.57L264.86-29.57L264.86-29.57Q263.94-29.06 263.20-27.90ZM314.18 1.28L314.18 1.28L314.18 1.28Q306.43 1.28 306.43-4.74L306.43-4.74L306.43-4.74Q306.50-6.40 307.01-9.22L307.01-9.22L308.16-15.10L308.16-15.10Q309.89-23.42 309.89-25.28L309.89-25.28L309.89-25.28Q309.89-28.99 307.71-28.99L307.71-28.99L307.71-28.99Q304.06-28.99 302.14-19.46L302.14-19.46L298.37 0L285.50 1.28L292.16-32.70L302.66-33.92L301.63-27.65L301.63-27.65Q304.64-33.92 313.86-33.92L313.86-33.92L313.86-33.92Q318.34-33.92 320.22-32.03L320.22-32.03L320.22-32.03Q322.11-30.14 322.11-25.92L322.11-25.92L322.11-25.92Q322.11-21.95 320.06-12.67L320.06-12.67L320.06-12.67Q319.10-8.51 319.10-6.94L319.10-6.94L319.10-6.94Q319.10-5.38 319.97-4.48L319.97-4.48L319.97-4.48Q320.83-3.58 322.11-3.46L322.11-3.46L322.11-3.46Q321.47-1.28 319.26 0L319.26 0L319.26 0Q317.06 1.28 314.18 1.28ZM346.37-22.46L346.37-22.46L346.37-22.46Q347.26-24.83 347.26-26.88L347.26-26.88L347.26-26.88Q347.26-30.66 344.19-30.66L344.19-30.66L344.19-30.66Q342.59-30.66 341.28-29.22L341.28-29.22L341.28-29.22Q339.97-27.78 339.97-25.98L339.97-25.98L339.97-25.98Q339.97-24.70 340.99-23.68L340.99-23.68L340.99-23.68Q342.46-22.27 346.24-19.97L346.24-19.97L346.24-19.97Q350.02-17.66 351.46-15.78L351.46-15.78L351.46-15.78Q352.90-13.89 352.90-11.30L352.90-11.30L352.90-11.30Q352.90-8.70 351.65-6.34L351.65-6.34L351.65-6.34Q350.40-3.97 348.16-2.30L348.16-2.30L348.16-2.30Q343.36 1.28 335.68 1.28L335.68 1.28L335.68 1.28Q331.52 1.28 328.32-0.90L328.32-0.90L328.32-0.90Q325.12-3.01 325.12-5.50L325.12-5.50L325.12-5.50Q325.12-8 326.94-9.47L326.94-9.47L326.94-9.47Q328.77-10.94 331.46-10.94L331.46-10.94L331.46-10.94Q334.14-10.94 335.81-9.92L335.81-9.92L335.81-9.92Q334.98-7.81 334.98-6.40L334.98-6.40L334.98-6.40Q334.98-2.18 338.56-2.18L338.56-2.18L338.56-2.18Q340.10-2.18 341.12-3.14L341.12-3.14L341.12-3.14Q342.14-4.10 342.14-5.76L342.14-5.76L342.14-5.76Q342.14-9.02 336.64-12.48L336.64-12.48L336.64-12.48Q332.16-15.42 331.14-16.58L331.14-16.58L331.14-16.58Q329.41-18.62 329.41-21.18L329.41-21.18L329.41-21.18Q329.41-23.74 330.62-26.18L330.62-26.18L330.62-26.18Q331.84-28.61 334.08-30.34L334.08-30.34L334.08-30.34Q338.75-33.92 346.88-33.92L346.88-33.92L346.88-33.92Q351.04-33.92 353.50-32.26L353.50-32.26L353.50-32.26Q355.97-30.59 355.97-27.78L355.97-27.78L355.97-27.78Q355.97-24.96 354.27-23.36L354.27-23.36L354.27-23.36Q352.58-21.76 349.50-21.76L349.50-21.76L349.50-21.76Q347.39-21.76 346.37-22.46ZM368.26-29.50L361.47-29.50L361.47-29.50Q363.84-37.70 363.97-46.34L363.97-46.34L365.82-46.59L365.82-46.59Q366.78-46.72 367.49-46.72L367.49-46.72L367.49-46.72Q370.30-46.72 371.84-45.34L371.84-45.34L371.84-45.34Q373.38-43.97 373.38-41.54L373.38-41.54L373.38-41.54Q373.38-38.98 372.22-36.16L372.22-36.16L372.22-36.16Q370.18-31.17 368.26-29.50L368.26-29.50ZM381.63-29.50L374.85-29.50L374.85-29.50Q377.22-37.70 377.34-46.34L377.34-46.34L379.20-46.59L379.20-46.59Q380.16-46.72 380.86-46.72L380.86-46.72L380.86-46.72Q383.68-46.72 385.22-45.34L385.22-45.34L385.22-45.34Q386.75-43.97 386.75-41.54L386.75-41.54L386.75-41.54Q386.75-38.98 385.60-36.16L385.60-36.16L385.60-36.16Q383.55-31.17 381.63-29.50L381.63-29.50Z" fill="url(#editing-gradient-gradient)"></path></g></g><style>text {
  font-size: 64px;
  font-family: Arial Black;
  dominant-baseline: central;
  text-anchor: middle;
}</style></svg>